<svg xmlns="http://www.w3.org/2000/svg" viewBox="0 0 246.45 246.57"><defs><style>.cls-1{fill:#46548e;}.cls-2{fill:#99b8ee;}.cls-3{fill:#e0e7f3;}.cls-4{fill:#39342f;}.cls-5{fill:#e4bb96;}.cls-6{fill:#3c3631;}.cls-7{fill:#becae7;}.cls-8{fill:#d2daf4;}.cls-9{fill:#bcccf3;}.cls-10{fill:#b87b62;}.cls-11{fill:#9292a4;}</style></defs><title>Ресурс 4</title><g id="Слой_2" data-name="Слой 2"><g id="Слой_1-2" data-name="Слой 1"><path class="cls-1" d="M24.87,197.58C11.84,180.16,3.61,160.7,1,139.1c-4.16-34.65,4.41-66,26.32-93.2C47.51,20.82,73.81,5.65,105.68,1.31c38.61-5.26,72.77,5.33,101.51,31.81C229.62,53.79,242.54,79.63,245.7,110c3.55,34-5.6,64.41-26.89,91.16a5.06,5.06,0,0,1-.91-1.36c-3.71-14.05-7.12-28.17-11.12-42.13-6-21.07-13.89-41.45-24.76-60.56-3.91-6.87-7.8-13.89-14.53-18.45-3.81-2.57-8.11-4.42-12.18-6.59-1-3.75-1.67-7.6-3-11.23-1.56-4.37-3.69-8.54-5.47-12.83-2.6-6.26-2-12.88-2.07-19.43,0-1.09-.05-2.18-.07-3.27a49.5,49.5,0,0,0-1.31-6.8c-1.4-4.2-3.36-5.31-7.84-5.46a43.46,43.46,0,0,1-6.05-.95c-9-1.61-14.93-.12-19,7.76a74.32,74.32,0,0,0-3.68,9c-2.81,7.83-5.59,15.67-10.61,22.45-2.63,3.53-5.54,6.89-7.84,10.62-3,4.82-4.48,10-1.56,15.57-1.51,1.39-3.45,2.52-4.46,4.22-4.66,7.85-9.53,15.63-13.47,23.85-14.35,29.92-28.35,60-42.51,90A12.85,12.85,0,0,1,24.87,197.58Z"/><path class="cls-2" d="M24.87,197.58a12.85,12.85,0,0,0,1.53-2.05c14.16-30,28.16-60.1,42.51-90,3.94-8.22,8.81-16,13.47-23.85,1-1.7,3-2.83,4.46-4.22,1.84,1,3.56,2.5,5.53,3,6.53,1.78,12.37.14,17.41-4.36,0,1,.07,2,.11,3,.13,2,.39,4,.37,5.95-.28,27.6-.54,55.2-1,82.8-.13,8.88-.65,17.75-1,26.63-.12,2.9-.32,5.8-.53,8.69-.64,8.84-1.26,17.69-2,26.52-.41,5.12-1,10.22-1.5,15.32-6-1.35-12.25-2.24-18.09-4.19-7.07-2.36-13.84-5.6-20.72-8.51a18,18,0,0,1-2.66-1.76c.13-2.24.25-4.48.38-6.72L65.75,180c.15-2.47.3-4.95.42-7.06C62,179.42,58,186.28,53.24,192.54s-10.3,12-15.49,17.93a4.25,4.25,0,0,0-.5,1.1Q31.05,204.58,24.87,197.58Z"/><path class="cls-2" d="M155.31,72c4.07,2.17,8.37,4,12.18,6.59,6.73,4.56,10.62,11.58,14.53,18.45,10.87,19.11,18.73,39.49,24.76,60.56,4,14,7.41,28.08,11.12,42.13a5.06,5.06,0,0,0,.91,1.36c-5.15,6.89-11.42,12.67-18,18.12a9.21,9.21,0,0,1-1.73.92l-7.53-23.06c.19,8.36.63,16.7,1.12,25a12.84,12.84,0,0,0,.66,2.52c-7,4-13.75,8.4-21,11.69-6.52,2.94-13.61,4.61-20.45,6.84a11.13,11.13,0,0,1-.94-2.72c-.58-7.1-1.08-14.21-1.59-21.31-.82-11.15-1.68-22.3-2.41-33.45-.45-6.87-.76-13.74-1-20.62-.39-11-.86-22.07-1-33.1-.18-17-.08-33.95-.09-50.92v0l.42-.6.16-9.83Zm27.47,35.62-.62,0c2.12,20,4.23,40,6.22,58.85C188,147.53,186.55,127.47,182.78,107.64Z"/><path class="cls-3" d="M144.82,81.05c0,17-.09,33.94.09,50.92.11,11,.58,22.07,1,33.1.25,6.88.56,13.75,1,20.62.73,11.15,1.59,22.3,2.41,33.45.51,7.1,1,14.21,1.59,21.31a11.13,11.13,0,0,0,.94,2.72c-5.24,1-10.45,2.34-15.73,2.82a180.48,180.48,0,0,1-19.6.52c-4.08-.09-8.14-1-12.21-1.48.51-5.1,1.09-10.2,1.5-15.32.71-8.83,1.33-17.68,2-26.52.21-2.89.41-5.79.53-8.69.37-8.88.89-17.75,1-26.63.41-27.6.67-55.2,1-82.8,0-2-.24-4-.37-5.95,6.57,7.2,14.79,9.26,24,6.89C137.68,85,141.17,82.74,144.82,81.05Z"/><path class="cls-1" d="M37.25,211.57a4.25,4.25,0,0,1,.5-1.1c5.19-6,10.73-11.65,15.49-17.93S62,179.42,66.17,173c-.12,2.11-.27,4.59-.42,7.06L63.2,223.85c-.13,2.24-.25,4.48-.38,6.72A116.79,116.79,0,0,1,37.25,211.57Z"/><path class="cls-1" d="M193.32,224.64a12.84,12.84,0,0,1-.66-2.52c-.49-8.33-.93-16.67-1.12-25l7.53,23.06Z"/><path class="cls-4" d="M109.78,76.11c-5,4.5-10.88,6.14-17.41,4.36-2-.53-3.69-2-5.53-3-2.92-5.53-1.42-10.75,1.56-15.57,2.3-3.73,5.21-7.09,7.84-10.62,5-6.78,7.8-14.62,10.61-22.45a74.32,74.32,0,0,1,3.68-9c4.08-7.88,10-9.37,19-7.76a43.46,43.46,0,0,0,6.05.95c4.48.15,6.44,1.26,7.84,5.46a49.5,49.5,0,0,1,1.31,6.8,8.91,8.91,0,0,0-1.9-1.84c-.93-.46-2.12-1.67-3,.12-3.14-.25-5-2.46-6.71-4.67-1-1.34-2-1.56-3.35-.82-2.45,1.36-4.89,2.74-7.35,4.09-3.81,2.08-4.71,5.49-4.36,9.48,0,1,0,1.95,0,2.93v.54c.07,2.1.13,4.2.2,6.29,0,.22.07.43.11.64v0c-.15,1.84-.3,3.68-.46,5.52l.36,1.44c-.14,1.38-.32,2.76-.43,4.15C117.14,61.51,115.44,69.51,109.78,76.11Z"/><path class="cls-4" d="M155.31,72l-9.92-1.38a9.16,9.16,0,0,1-1.14-2c-.71-2.67-1.31-5.37-1.95-8.06l-1.52-13.5c.14-.21.39-.41.39-.62q.09-6.36.1-12.72a3.69,3.69,0,0,0-.43-1.15q2-2,4-4.06c0,6.55-.53,13.17,2.07,19.43,1.78,4.29,3.91,8.46,5.47,12.83C153.64,64.42,154.34,68.27,155.31,72Z"/><path class="cls-5" d="M144.81,28.53q-2,2-4,4.06c-.34-.68-1-1.35-1-2.05-.1-2.28,0-4.57.05-6.85l-.1-.15c.92-1.79,2.11-.58,3-.12a8.91,8.91,0,0,1,1.9,1.84C144.76,26.35,144.79,27.44,144.81,28.53Z"/><path class="cls-5" d="M142.3,60.58c.64,2.69,1.24,5.39,1.95,8.06a9.16,9.16,0,0,0,1.14,2c0,3.28-.11,6.55-.16,9.83l-.42.6v0c-3.65,1.69-7.14,4-11,5-9.17,2.37-17.39.31-24-6.89,0-1-.08-2-.11-3,5.66-6.6,7.36-14.6,8-23,.11-1.39.29-2.77.43-4.15l4,1.09c1.11,4.75,4.35,7.61,8.63,9.41A20.56,20.56,0,0,0,142.3,60.58Z"/><path class="cls-6" d="M182.78,107.64c3.77,19.83,5.24,39.89,5.6,58.9-2-18.85-4.1-38.85-6.22-58.85Z"/><path class="cls-3" d="M144.81,81.07l.42-.6Z"/><path class="cls-5" d="M118,31.62c-.35-4,.55-7.4,4.36-9.48,2.46-1.35,4.9-2.73,7.35-4.09,1.36-.74,2.31-.52,3.35.82,1.71,2.21,3.57,4.42,6.71,4.67l.1.15c-.29,2.83-.58,5.66-.88,8.63-1.08-.33-2.11-.63-3.13-.95-4.78-1.49-9.58-2.53-14.54-.72C120.27,31.05,119.14,31.3,118,31.62Z"/><path class="cls-7" d="M118,35.09v-.54c2.58-.49,5.18-.92,7.74-1.5a14.73,14.73,0,0,0,2.66-1.21c0-.29-.07-.58-.11-.87l11,3.07v7.55l-2.52.48-9.49.41V34Z"/><path class="cls-8" d="M139.31,41.59V34l-11-3.07c0,.29.07.58.11.87a14.73,14.73,0,0,1-2.66,1.21c-2.56.58-5.16,1-7.74,1.5,0-1,0-1.95,0-2.93,1.11-.32,2.24-.57,3.32-1,5-1.81,9.76-.77,14.54.72,1,.32,2.05.62,3.13.95.3-3,.59-5.8.88-8.63,0,2.28-.15,4.57-.05,6.85,0,.7.65,1.37,1,2.05a3.69,3.69,0,0,1,.43,1.15q0,6.36-.1,12.72c0,.21-.25.41-.39.62-5.82,3.05-11.92,4.41-18.47,3l-4-1.09-.36-1.44,9.93,1.5c2.51-.43,5.08-.67,7.54-1.33,4-1.07,4.08-1.33,3.95-5.4C139.31,42.09,139.31,41.84,139.31,41.59Z"/><path class="cls-8" d="M118,35.09,127.3,34v8.45L119,42.12l-.59-.07v0c0-.21-.07-.42-.11-.64C118.17,39.29,118.11,37.19,118,35.09Z"/><path class="cls-9" d="M118.36,42.05l.59.07,8.81,1.05c0,2,0,3.93.07,5.9l-9.93-1.5Z"/><path class="cls-7" d="M118.24,41.38c0,.22.07.43.11.64C118.31,41.81,118.28,41.6,118.24,41.38Z"/><path class="cls-10" d="M122.31,50.1c6.55,1.39,12.65,0,18.47-3q.76,6.75,1.52,13.5a20.56,20.56,0,0,1-11.36-1.07C126.66,57.71,123.42,54.85,122.31,50.1Z"/><path class="cls-2" d="M127.83,49.07c0-2,0-3.93-.07-5.9l9-1.1,2.52-.48c0,.25,0,.5,0,.75.13,4.07.05,4.33-3.95,5.4C132.91,48.4,130.34,48.64,127.83,49.07Z"/><path class="cls-11" d="M136.79,42.07l-9,1.1L119,42.12l8.35.36Z"/></g></g></svg>