<svg xmlns="http://www.w3.org/2000/svg" viewBox="0 0 246.67 288.16"><defs><style>.cls-1{fill:#14236d;}.cls-2{fill:#64779f;}.cls-3{fill:#d58e70;}.cls-4{fill:#1a1c5e;}.cls-5{fill:#041749;}.cls-6{fill:#d2daf4;}.cls-7{fill:#fdfdfd;}.cls-8{fill:#dd9375;}.cls-9{fill:#becae7;}.cls-10{fill:#99b8ee;}.cls-11{fill:#bcccf3;}.cls-12{fill:#97ade4;}</style></defs><title>Ресурс 2</title><g id="Слой_2" data-name="Слой 2"><g id="Слой_1-2" data-name="Слой 1"><path class="cls-1" d="M197.65,221.51c-.13,10.66-.08,21.32-.44,32-.38,11.22-1.14,22.43-1.75,33.64a7.09,7.09,0,0,1-.22,1.05h-8.31c-.53-8.63-1.07-17.29-1.62-26.07H62.64c-.54,8.69-1.08,17.3-1.63,26.05h-8.4A511.36,511.36,0,0,1,49,221.43c.49-9.21.72-18.44,1.55-27.61,1-11.48,2.34-22.95,4-34.35A295.72,295.72,0,0,1,71.05,95.21c6.09-15.85,17.28-22.95,33.29-22.83.56,1,1,2,1.68,2.93,1.63,2.36,3.32,4.68,5,7a10.23,10.23,0,0,0,.71,2c2.69,4.38,5.42,8.73,8.15,13.08.63,1,1.31,2,2.24,3.36.6-.82,1-1.26,1.27-1.74,2.35-3.81,4.71-7.61,7-11.46,1-1.68,1.77-3.49,2.64-5.24l6.66-10c5.64,1.35,11.4,2.31,16.88,4.13,9.4,3.13,16.86,9,20.55,18.4a280.14,280.14,0,0,1,9.79,29,250,250,0,0,1,7.67,44.84c1,11.83,1.77,23.68,2.5,35.52C197.41,210,197.46,215.78,197.65,221.51Zm-140.91,7a3.42,3.42,0,0,0,.24-.74c.34-11.53.62-23.07,1.05-34.59.18-4.71.59-9.42,1.06-14.11q1.09-10.85,2.42-21.68c.9-7.45,1.91-14.9,2.87-22.35.37-2.85.72-5.69,1.08-8.53C59.52,141.07,54,207.67,56.74,228.46ZM182.58,125.85a14.23,14.23,0,0,0,0,2c1.45,10.56,3.1,21.1,4.34,31.69s2.24,21.07,3,31.63c.63,8.85.75,17.74,1.08,26.62,0,.85,0,1.7,0,2.56C191.8,188.51,190.42,156.89,182.58,125.85Z"/><path class="cls-2" d="M197.65,221.51c-.19-5.73-.24-11.47-.6-17.2-.73-11.84-1.51-23.69-2.5-35.52A250,250,0,0,0,186.88,124a280.14,280.14,0,0,0-9.79-29c-3.69-9.37-11.15-15.27-20.55-18.4-5.48-1.82-11.24-2.78-16.88-4.13l-4.2-24.54a11.83,11.83,0,0,0,.36-2.1c0-3.21-.1-6.41-.17-9.62,0-.94-.06-1.89-.08-2.83a27.6,27.6,0,0,0,2.36-1.79,5.59,5.59,0,0,0,1.91-5.61,3.75,3.75,0,0,0-3.73-3.07l-.24-.51c.4-6.55-1.43-9.16-7.86-9.45a100.13,100.13,0,0,0-15.53,1c-2.35.26-3.74,2.07-4,4.48-.17,1.47-.17,3-.24,4.45a.2.2,0,0,0-.27,0c-1.85-.08-3.45.3-4.28,2.21a4.94,4.94,0,0,0,.87,5.53A23.84,23.84,0,0,0,108,33.3c-.06.7-.17,1.41-.16,2.12,0,3.38,0,6.76.13,10.14a13.3,13.3,0,0,0,.69,2.78c-.14,1.56-.14,3.15-.43,4.68-1.24,6.46-2.57,12.91-3.87,19.36-16-.12-27.2,7-33.29,22.83a295.72,295.72,0,0,0-16.56,64.26c-1.65,11.4-2.94,22.87-4,34.35-.83,9.17-1.06,18.4-1.55,27.61-24.53-18.8-40.32-43.28-46.31-73.56-7.34-37.09.61-71,23.93-100.85,20-25.63,46.54-40.93,78.79-45.67C168.88-8,228,32.13,243.31,94.76,254.78,141.62,236.23,193.1,197.65,221.51Z"/><path class="cls-3" d="M135.46,47.87l4.2,24.54-6.66,10a45.33,45.33,0,0,1-22,0c-1.67-2.34-3.36-4.66-5-7-.63-.93-1.12-2-1.68-2.93,1.3-6.45,2.63-12.9,3.87-19.36.29-1.53.29-3.12.43-4.68C117.66,52.72,126.6,52.62,135.46,47.87Z"/><path class="cls-4" d="M111,82.33a45.33,45.33,0,0,0,22,0c-.87,1.75-1.65,3.56-2.64,5.24-2.27,3.85-4.63,7.65-7,11.46-.3.48-.67.92-1.27,1.74-.93-1.39-1.61-2.36-2.24-3.36-2.73-4.35-5.46-8.7-8.15-13.08A10.23,10.23,0,0,1,111,82.33Z"/><path class="cls-5" d="M56.74,228.46c-2.75-20.79,2.78-87.39,8.72-102-.36,2.84-.71,5.68-1.08,8.53-1,7.45-2,14.9-2.87,22.35q-1.3,10.83-2.42,21.68c-.47,4.69-.88,9.4-1.06,14.11-.43,11.52-.71,23.06-1.05,34.59A3.42,3.42,0,0,1,56.74,228.46Z"/><path class="cls-5" d="M182.58,125.85c7.84,31,9.22,62.66,8.43,94.46,0-.86,0-1.71,0-2.56-.33-8.88-.45-17.77-1.08-26.62q-1.12-15.84-3-31.63c-1.24-10.59-2.89-21.13-4.34-31.69A14.23,14.23,0,0,1,182.58,125.85Z"/><path class="cls-6" d="M135.46,47.87c-8.86,4.75-17.8,4.85-26.82.47a13.3,13.3,0,0,1-.69-2.78c-.12-3.38-.12-6.76-.13-10.14,0-.71.1-1.42.16-2.12.5-.7,1.5-1.46,1.43-2.09-.32-2.82-1-5.6-1.46-8.4a.2.2,0,0,1,.27,0l1.2.54.8,8.7c4-.74,7.92-2.08,11.85-2s7.83,1.49,11.66,2.3c.26-2.13.52-4.29.79-6.46l0,0c0,1.79-.12,3.58,0,5.35a6.59,6.59,0,0,0,1.06,2.12c0,.94.06,1.89.08,2.83.07,3.21.15,6.41.17,9.62A11.83,11.83,0,0,1,135.46,47.87Zm-13.47,2c2.53-.37,5.1-.59,7.58-1.17a8.75,8.75,0,0,0,4.41-2.1c.66-.74.05-2.61,0-4a2.18,2.18,0,0,0,0-.25V34.31l-10.28-2.8c-1.7-.46-1.73.67-1.73,1.83l-7.39,1.12.06.4,7.35-.47v8.49l-8-.08-4.13-.9c-.83,4.53-.89,4.91,2.82,6.2C115.62,49.12,118.87,49.31,122,49.88Z"/><path class="cls-7" d="M109.42,23.38l-1.2-.54c.07-1.48.07-3,.24-4.45.28-2.41,1.67-4.22,4-4.48a100.13,100.13,0,0,1,15.53-1c6.43.29,8.26,2.9,7.86,9.45l-1.29.54c0-1.59-1.1-1.52-2.24-1.52-6.74,0-13.49,0-20.23-.08C110.48,21.26,109.56,21.71,109.42,23.38Z"/><path class="cls-8" d="M108,22.81c.51,2.8,1.14,5.58,1.46,8.4.07.63-.93,1.39-1.43,2.09a23.84,23.84,0,0,1-3.44-2.75,4.94,4.94,0,0,1-.87-5.53C104.5,23.11,106.1,22.73,108,22.81Z"/><path class="cls-8" d="M135.57,33.32a6.59,6.59,0,0,1-1.06-2.12c-.15-1.77,0-3.56,0-5.35.36-.23.92-.38,1.05-.7a14.61,14.61,0,0,0,.58-2.3,3.75,3.75,0,0,1,3.73,3.07,5.59,5.59,0,0,1-1.91,5.61A27.6,27.6,0,0,1,135.57,33.32Z"/><path class="cls-6" d="M136.11,22.85a14.61,14.61,0,0,1-.58,2.3c-.13.32-.69.47-1.05.7l0,0,.06-3,1.29-.54Z"/><path class="cls-8" d="M134.58,22.88l-.06,3c-.27,2.17-.53,4.33-.79,6.46-3.83-.81-7.74-2.25-11.66-2.3s-7.87,1.3-11.85,2l-.8-8.7c.14-1.67,1.06-2.12,2.69-2.1,6.74.1,13.49.09,20.23.08C133.48,21.36,134.57,21.29,134.58,22.88Z"/><path class="cls-9" d="M122,42.88V34.39l9.48,1,.07-.51L122,33.34c0-1.16,0-2.29,1.73-1.83L134,34.31v8.07Z"/><path class="cls-10" d="M122,42.88l12-.5a2.18,2.18,0,0,1,0,.25c0,1.37.65,3.24,0,4a8.75,8.75,0,0,1-4.41,2.1c-2.48.58-5,.8-7.58,1.17,0-1.32-.08-2.64,0-4,.14-1.67-.6-2-2.14-2.1a50.42,50.42,0,0,1-5.91-1Z"/><path class="cls-11" d="M114,42.8a50.42,50.42,0,0,0,5.91,1c1.54.09,2.28.43,2.14,2.1-.11,1.31,0,2.63,0,4-3.12-.57-6.37-.76-9.33-1.78-3.71-1.29-3.65-1.67-2.82-6.2Z"/><path class="cls-12" d="M122,33.34l9.57,1.5-.07.51-9.48-1-7.35.47-.06-.4Z"/></g></g></svg>