<svg xmlns="http://www.w3.org/2000/svg" viewBox="0 0 246.75 246.63"><defs><style>.cls-1{fill:#97ade4;}.cls-2{fill:#19488c;}.cls-3{fill:#556bb7;}.cls-4{fill:#d5a585;}.cls-5{fill:#e4bb96;}.cls-6{fill:#64779f;}.cls-7{fill:#39342f;}.cls-8{fill:#d2daf4;}.cls-9{fill:#becae7;}.cls-10{fill:#bcccf3;}.cls-11{fill:#99b8ee;}.cls-12{fill:#9292a4;}</style></defs><title>Ресурс 1</title><g id="Слой_2" data-name="Слой 2"><g id="Слой_1-2" data-name="Слой 1"><path class="cls-1" d="M188.65,227.61c-3.54,2.09-7,4.39-10.66,6.25a116.39,116.39,0,0,1-32.81,10.87c-5.51,1-11.15,1.17-16.74,1.66-1.8.16-3.6.16-5.41.24,0-12.65.12-25.3.08-37.94,0-1.87.42-2.87,2.34-3.35a37.83,37.83,0,0,0,5.1-2c1.58-.65,3.13-1.36,4.7-2-25,5.71-49.89,10.54-75.59,9.58-.48-.11-1-.24-1.45-.34-5.84-1.2-11.87-1.81-17.47-3.7-14.25-4.79-20.6-15.91-18.17-30.78a104.91,104.91,0,0,1,9-27.38c11.78-25.26,29-46.43,49.16-65.43,5.39-5.09,11.58-8.73,19.13-9.27,3.69-.26,6.8-.81,7.3-5.26l10.68,1.36C117,73,116.26,76,115.49,78.9l.66.19a17.77,17.77,0,0,1,1.19-2.62,18.31,18.31,0,0,1,2-2.14h6.74c.62.51,1.45.91,1.82,1.57a40.85,40.85,0,0,1,1.86,4.16l.56-.19-2.7-9.36A27.58,27.58,0,0,1,131,69.44c2.41-.43,4.84-.71,7.27-1a10.27,10.27,0,0,1,.72,2.08c.32,2.39,1.56,3.22,4,3.73a82,82,0,0,1,14.8,4.29c24,10,47.94,20.28,71.93,30.37a6.25,6.25,0,0,0,4,0c3.78-1.23,7.48-2.75,11.21-4.15.33,1.59.79,3.17,1,4.78.94,8.8,1.35,17.61-.07,26.4a3.92,3.92,0,0,0-1,.06c-14.16,5-28.62,4.5-43.09,2-6.44-1.11-12.74-3.06-19.11-4.63L177,130.83l-.77.67c2,6.65,3.92,13.33,6.07,19.93.39,1.2,1.72,2.1,2.62,3.14.3,2.55.69,5.1.87,7.66,1,14.06,2,28.12,2.72,42.2C188.91,212.14,188.63,219.88,188.65,227.61Zm-31.46-33.14c2.74-.18,5.1-.08,6.64-2.4-8.2-4.69-17-2.34-25.45-3.73-.26,4.24-.49,8-.68,11.15,3.57,1.81,6.64,3.39,9.73,4.93,3.84,1.91,7.67,3.85,11.56,5.63.51.24,1.95-.22,2-.54.67-3.3,1.57-6.65,1.46-10-.05-1.34-2.39-2.62-3.71-3.9A18.61,18.61,0,0,0,157.19,194.47ZM122.89,77.24h-.48v106.9h.48ZM54.73,178.92c2.22-.2,4.13-.27,6-.57A2,2,0,0,0,62,177c.56-5,1-10,1.51-15.31Zm75.58-97.56.46.44.68-.86-.25-.21Zm-14.85-1.11s-.12,0-.14,0a.53.53,0,0,0,0,.19l.24,0Z"/><path class="cls-2" d="M107.13,68.74c-.5,4.45-3.61,5-7.3,5.26-7.55.54-13.74,4.18-19.13,9.27-20.12,19-37.38,40.17-49.16,65.43a104.91,104.91,0,0,0-9,27.38c-2.43,14.87,3.92,26,18.17,30.78,5.6,1.89,11.63,2.5,17.47,3.7.49.1,1,.23,1.45.34l.48,9,0,9.14a118.09,118.09,0,0,1-37.81-35C5.74,170.26-1.56,143.74.28,114.85c3.59-56.51,45.94-103.3,102-113,66.65-11.56,130.47,33,142.29,99.45.2,1.13.24,2.3.36,3.45-3.73,1.4-7.43,2.92-11.21,4.15a6.25,6.25,0,0,1-4,0c-24-10.09-47.91-20.37-71.93-30.37A82,82,0,0,0,143,74.2c-2.43-.51-3.67-1.34-4-3.73a10.27,10.27,0,0,0-.72-2.08q-1.4-9.07-2.77-18.14a13.09,13.09,0,0,0,.55-2.49c.06-3.17.06-6.35,0-9.52a15.45,15.45,0,0,0-.41-2.32c.54-.38,1.1-.74,1.62-1.14,3.37-2.52,3.26-6.41-.25-8.72.12-1.07.19-2.15.38-3.21.94-5.15-1.34-8.87-6.52-9.93a35.11,35.11,0,0,0-19.31,1.74c-5.32,1.93-7.42,6.45-5.38,11.85-2.06,2.68-2.11,5.19,0,7.33a23.45,23.45,0,0,0,3,2.16c0,4.3-.08,8.6,0,12.9,0,.51.42,1,.64,1.52Z"/><path class="cls-2" d="M188.65,227.61c0-7.73.26-15.47-.12-23.18-.7-14.08-1.76-28.14-2.72-42.2-.18-2.56-.57-5.11-.87-7.66-.3-4.08-.52-8.17-.94-12.24-.31-3-.89-6-1.36-9,6.37,1.57,12.67,3.52,19.11,4.63,14.47,2.47,28.93,3,43.09-2a3.92,3.92,0,0,1,1-.06c-4.59,39.16-23.55,69.46-56.27,91.28A6.77,6.77,0,0,1,188.65,227.61Z"/><path class="cls-1" d="M60.17,229l0-9.14c3-.32,6.1-.62,9.15-1a244.46,244.46,0,0,0,42.3-8.93c3.39-1,6.78-2.07,10.48-3.21v39.7a115.86,115.86,0,0,1-48.15-10.12C69.18,234.27,64.74,231.5,60.17,229Z"/><path class="cls-3" d="M122.07,246.48v-39.7c-3.7,1.14-7.09,2.19-10.48,3.21a244.46,244.46,0,0,1-42.3,8.93c-3.05.36-6.1.66-9.15,1l-.48-9c25.7,1,50.64-3.87,75.59-9.58-1.57.68-3.12,1.39-4.7,2a37.83,37.83,0,0,1-5.1,2c-1.92.48-2.35,1.48-2.34,3.35,0,12.64,0,25.29-.08,37.94Z"/><path class="cls-4" d="M135.5,50.24q1.38,9.07,2.77,18.15c-2.43.34-4.86.62-7.27,1a27.58,27.58,0,0,0-3.38,1.07c-.52,1.27-1,2.54-1.54,3.82h-6.74l-1.53-4.23-10.68-1.36,2.7-18.32c.46.17.93.33,1.38.53,4.26,1.91,8.7,3.28,13.38,2.36C128.29,52.59,131.87,51.29,135.5,50.24Z"/><path class="cls-5" d="M157.19,194.47a18.61,18.61,0,0,1,1.56,1.18c1.32,1.28,3.66,2.56,3.71,3.9.11,3.31-.79,6.66-1.46,10-.06.32-1.5.78-2,.54-3.89-1.78-7.72-3.72-11.56-5.63-3.09-1.54-6.16-3.12-9.73-4.93.19-3.14.42-6.91.68-11.15,8.45,1.39,17.25-1,25.45,3.73C162.29,194.39,159.93,194.29,157.19,194.47Z"/><ellipse class="cls-3" cx="122.65" cy="130.69" rx="0.34" ry="75.59"/><path class="cls-3" d="M182.64,133.36c.47,3,1.05,6,1.36,9,.42,4.07.64,8.16.94,12.24-.9-1-2.23-1.94-2.62-3.14-2.15-6.6-4.07-13.28-6.07-19.93l.77-.67Z"/><path class="cls-2" d="M54.73,178.92l8.82-17.19C63,167.06,62.6,172.05,62,177a2,2,0,0,1-1.31,1.31C58.86,178.65,57,178.72,54.73,178.92Z"/><path class="cls-6" d="M126.08,74.33c.51-1.28,1-2.55,1.54-3.82l2.7,9.36-.56.19a40.85,40.85,0,0,0-1.86-4.16C127.53,75.24,126.7,74.84,126.08,74.33Z"/><path class="cls-6" d="M117.81,70.1l1.53,4.23a18.31,18.31,0,0,0-2,2.14,17.77,17.77,0,0,0-1.19,2.62l-.66-.19C116.26,76,117,73,117.81,70.1Z"/><path class="cls-6" d="M130.31,81.36l.89-.63.25.21-.68.86Z"/><path class="cls-6" d="M115.46,80.25l.06.18-.24,0a.53.53,0,0,1,0-.19S115.41,80.26,115.46,80.25Z"/><path class="cls-7" d="M106.2,26.51c-2-5.4.06-9.92,5.38-11.85a35.11,35.11,0,0,1,19.31-1.74c5.18,1.06,7.46,4.78,6.52,9.93-.19,1.06-.26,2.14-.38,3.21l-.86-.06-1.11.25a69.68,69.68,0,0,1-23.12-4.08v5l-1.21-.43-.63-.35Z"/><path class="cls-8" d="M135.06,26.25l1.11-.25c-.49,3-1,6-1.43,9,0,.25.6.59.92.89a15.45,15.45,0,0,1,.41,2.32c0,3.17,0,6.35,0,9.52a13.09,13.09,0,0,1-.55,2.49c-3.63,1-7.21,2.34-10.91,3.06-4.68.92-9.12-.45-13.38-2.36-.45-.2-.92-.36-1.38-.53-.22-.51-.64-1-.64-1.52,0-4.3,0-8.6,0-12.91.49-.57,1.35-1.13,1.4-1.74.15-2.11,0-4.24,0-6.36.42,2.39.83,4.79,1.32,7.61,7.3-3.94,14.64-2.77,21.81-.1C134.23,32.13,134.64,29.19,135.06,26.25ZM122.64,51.92a49.9,49.9,0,0,0,6.83-1c5.14-1.43,5.11-1.54,4.67-6.54.15-1.87.41-3.75.39-5.63A2.34,2.34,0,0,0,133.41,37c-2.88-1-5.81-1.77-8.75-2.53-1.45-.37-2.18.33-2,1.86l-8.44,1,.07.58,8.37-.93c0,2.78,0,5.56,0,8.34L113.2,45c-.67.13-1.87.12-2,.4-.36,1.4-1.54,3.07.6,4.12A21.17,21.17,0,0,0,122.64,51.92Z"/><path class="cls-5" d="M110.64,27.89c0,2.12.15,4.25,0,6.36,0,.61-.91,1.17-1.4,1.74a22.46,22.46,0,0,1-3-2.15c-2.14-2.14-2.09-4.65,0-7.33l3.9-.07.57,1.49Z"/><path class="cls-5" d="M135.66,35.92c-.32-.3-.95-.64-.92-.89.42-3,.94-6,1.43-9l.86.06c3.51,2.31,3.62,6.2.25,8.72C136.76,35.18,136.2,35.54,135.66,35.92Z"/><path class="cls-5" d="M135.06,26.25c-.42,2.94-.83,5.88-1.29,9.15-7.17-2.67-14.51-3.84-21.81.1-.49-2.82-.9-5.22-1.32-7.61l0,0,.06-1.14,1.21.43v-5A69.68,69.68,0,0,0,135.06,26.25Z"/><path class="cls-8" d="M110.73,26.79l-.06,1.14-.57-1.49Z"/><path class="cls-9" d="M122.62,36.31c-.14-1.53.59-2.23,2-1.86,2.94.76,5.87,1.57,8.75,2.53a2.34,2.34,0,0,1,1.12,1.81c0,1.88-.24,3.76-.39,5.63l-1.61.54-9.9.39c0-2.78,0-5.56,0-8.34l8.48,1,.07-.68Z"/><path class="cls-10" d="M122.64,51.92a21.17,21.17,0,0,1-10.79-2.43c-2.14-1.05-1-2.72-.6-4.12.08-.28,1.28-.27,2-.4l9.43,1.43C122.64,48.24,122.64,50.08,122.64,51.92Z"/><path class="cls-11" d="M122.64,51.92c0-1.84,0-3.68,0-5.52l9.9-1.44,1.61-.54c.44,5,.47,5.11-4.67,6.54A49.9,49.9,0,0,1,122.64,51.92Z"/><path class="cls-12" d="M132.53,45l-9.9,1.44L113.2,45l9.43.38Z"/><path class="cls-12" d="M122.62,36.31l8.55,1-.07.68-8.48-1-8.37.93-.07-.58Z"/></g></g></svg>