<svg xmlns="http://www.w3.org/2000/svg" viewBox="0 0 246.46 246.61"><defs><style>.cls-1{fill:#b5b5cd;}.cls-2{fill:#464da2;}.cls-3{fill:#3c3631;}.cls-4{fill:#e4bb96;}.cls-5{fill:#d2daf4;}.cls-6{fill:#b87b62;}.cls-7{fill:#becae7;}.cls-8{fill:#bcccf3;}.cls-9{fill:#99b8ee;}.cls-10{fill:#9292a4;}</style></defs><title>Ресурс 6</title><g id="Слой_2" data-name="Слой 2"><g id="Слой_1-2" data-name="Слой 1"><path class="cls-1" d="M22,192.68A10.52,10.52,0,0,1,20.28,191a123.43,123.43,0,0,1-18.71-48A125.14,125.14,0,0,1,.31,114.23,123,123,0,0,1,36.45,35.77,122.18,122.18,0,0,1,103.85,1.6,118.26,118.26,0,0,1,131.7.31a123.44,123.44,0,0,1,95.22,56.32,14.59,14.59,0,0,1,.75,1.54c-11.73,18.91-24.28,37.37-32.31,58.56-.54-.16-1.35-.33-2.11-.62-11.73-4.48-23.42-9.06-35.2-13.42-7.23-2.68-14.58-5-21.88-7.52l-1.56-7.89,10.14,1.65c-.78-7.18-1.21-14-2.36-20.7a137.33,137.33,0,0,0-4.18-15.84A5.87,5.87,0,0,0,133,48.25c-4.94-.68-9.89-1.29-14.81-2.09S110,47.59,108.15,52c-2.47,6-4.86,12-7,18.13-1.53,4.45-2.53,9.08-3.9,14.1h12.43l-2.1,10c-2.65.18-5.3.33-8,.57-7.75.7-14.15,4.13-18.45,10.54-10.12,15.07-19.9,30.35-29.86,45.51-6.2,9.43-10.39,20.12-18.23,28.54C29.18,183.56,25.67,188.21,22,192.68Z"/><path class="cls-2" d="M136.17,95.17c7.3,2.5,14.65,4.84,21.88,7.52,11.78,4.36,23.47,8.94,35.2,13.42.76.29,1.57.46,2.11.62,8-21.19,20.58-39.65,32.31-58.56l7.55,14.49a3.13,3.13,0,0,0-.5.8c-1.71,6.76-3.11,13.61-5.14,20.27-3.89,12.76-8.71,25.17-16.38,36.23-3.42,4.94-7.15,9.7-13.6,11-7.15,1.44-14.24.73-21.31-.57-3.45-.63-6.88-1.47-10.29-2.22,1.1,9.56,2.38,18.84,3.18,28.16,1.33,15.39,2.5,30.8,3.4,46.23.44,7.53.14,15.11.17,22.67a104.71,104.71,0,0,1-28.82,9.3,123.19,123.19,0,0,1-71.59-8c-.83-.36-1.62-.82-2.44-1.23-.06-.74-.18-1.48-.18-2.22.1-13,.07-26,.35-39,.25-12.14.81-24.27,1.24-36.4-1.33,3.74-2.6,7.58-4.07,11.34-3.78,9.7-7.4,19.56-14.21,27.62-4.93,5.83-10.55,11.06-15.87,16.56C32.63,207.65,27.27,201,22.3,194.08a3.84,3.84,0,0,1-.33-1.4c3.7-4.47,7.21-9.12,11.16-13.37,7.84-8.42,12-19.11,18.23-28.54,10-15.16,19.74-30.44,29.86-45.51,4.3-6.41,10.7-9.84,18.45-10.54,2.65-.24,5.3-.39,8-.57a59.54,59.54,0,0,0,1.3,7.57c1.63,5.41,5.2,8.85,11,9.36,6.37.55,11.59-2.21,14.09-7.78C135.18,100.78,135.49,97.9,136.17,95.17Z"/><path class="cls-1" d="M174.75,235.23c0-7.56.27-15.14-.17-22.67-.9-15.43-2.07-30.84-3.4-46.23-.8-9.32-2.08-18.6-3.18-28.16,3.41.75,6.84,1.59,10.29,2.22,7.07,1.3,14.16,2,21.31.57,6.45-1.3,10.18-6.06,13.6-11,7.67-11.06,12.49-23.47,16.38-36.23,2-6.66,3.43-13.51,5.14-20.27a3.13,3.13,0,0,1,.5-.8c1.13,2.37,2.46,4.66,3.36,7.12a125.77,125.77,0,0,1,7.67,36.41c1.69,30.32-6.76,57.53-24.84,81.72a120.31,120.31,0,0,1-46.17,37.2A2.51,2.51,0,0,1,174.75,235.23Z"/><path class="cls-1" d="M39.16,213.23c5.32-5.5,10.94-10.73,15.87-16.56,6.81-8.06,10.43-17.92,14.21-27.62,1.47-3.76,2.74-7.6,4.07-11.34-.43,12.13-1,24.26-1.24,36.4-.28,13-.25,26-.35,39,0,.74.12,1.48.18,2.22a104.51,104.51,0,0,1-23.16-13.85C45.43,218.86,42.35,216,39.16,213.23Z"/><path class="cls-3" d="M109.72,84.2H97.29c1.37-5,2.37-9.65,3.9-14.1,2.1-6.12,4.49-12.15,7-18.13,1.82-4.38,5-6.63,10.07-5.81s9.87,1.41,14.81,2.09a5.87,5.87,0,0,1,5.18,4.14,137.33,137.33,0,0,1,4.18,15.84c1.15,6.7,1.58,13.52,2.36,20.7l-10.14-1.65-2.77-.76q-.06-4.14-.13-8.28c1.49-.42,1.9-1.33,2-2.91A44.81,44.81,0,0,1,134.83,67c.34-1.41.08-2.14-1.05-2.77,3.88-1,4.78-5.18,3.05-7.12-1.26-1.4-2.39-1.32-3.23.33-.38.75-.73,1.52-1.42,2.95v-3l-17.59-2.49-.23,3.53c-.52-1.13-.82-1.8-1.12-2.46l-.18-1.34c.09-1.39-.66-1.73-1.85-1.44-2.11.52-3.25,2.08-2.64,4,.52,1.63,2,2.95,3.07,4.4-1.45-.1-1.43.83-1.52,1.91a53.37,53.37,0,0,1-1.05,8.5c-.45,1.81-.08,2.74,1.36,3.58a11.94,11.94,0,0,1,1.34,1C111.09,79.14,110.4,81.67,109.72,84.2Z"/><path class="cls-4" d="M109.72,84.2c.68-2.53,1.37-5.06,2-7.58l6.37,2.56c2.36,5.25,7.48,8,13.7,7.34l2.77.76,1.56,7.89c-.68,2.73-1,5.61-2.11,8.13-2.5,5.57-7.72,8.33-14.09,7.78-5.84-.51-9.41-4-11-9.36a59.54,59.54,0,0,1-1.3-7.57Q108.67,89.17,109.72,84.2Z"/><path class="cls-5" d="M118.14,79.18l-6.37-2.56a11.94,11.94,0,0,0-1.34-1c-1.44-.84-1.81-1.77-1.36-3.58a53.37,53.37,0,0,0,1.05-8.5c.09-1.08.07-2,1.51-1.91.74-1.61,2.1-.29,3.16-.64,6.86-2.2,13,.41,19,3.29,1.13.63,1.39,1.36,1.05,2.77a44.81,44.81,0,0,0-1.15,8.31c-.07,1.58-.48,2.49-2,2.91A28,28,0,0,1,118.14,79.18Zm0-7.51L116,71.14l-.09,0-1.77-.52-2.42-.88c-2,2.86-1.94,4,1,5.32,2.72,1.27,5.67,2.06,8.52,3.06,1.4,0,2.81.09,4.2,0,6.09-.45,6.74-1,6.81-5.46.41-2.22.82-4.44,1.28-7l-10.06-4.2c-.13.89-.19,1.36-.26,1.84l-7.93.4v.51h7.4c-.33,2.51-.65,5-1,7.52l-3.5-.12Z"/><path class="cls-4" d="M133.78,64.25c-6-2.88-12.13-5.49-19-3.29-1.06.35-2.42-1-3.16.64-1-1.45-2.54-2.77-3.06-4.4-.61-1.91.53-3.47,2.64-4,1.19-.29,1.94,0,1.85,1.45l-.51,4,.47,0c.08-.9.15-1.79.22-2.69.3.66.6,1.33,1.12,2.46l.23-3.53,17.59,2.49v3c.69-1.43,1-2.2,1.42-2.95.84-1.65,2-1.73,3.23-.33C138.56,59.07,137.66,63.28,133.78,64.25Zm.24-3.67-.31,0c0,.39,0,.78.08,1.17l.31,0C134.08,61.36,134.05,61,134,60.58Zm.5-2h-.21v.81h.21Z"/><path class="cls-6" d="M118.14,79.18a28,28,0,0,0,13.57-.94q.07,4.14.13,8.28C125.62,87.18,120.5,84.43,118.14,79.18Z"/><path class="cls-5" d="M113.24,56c-.07.9-.14,1.79-.22,2.69l-.47,0,.51-4Z"/><path class="cls-7" d="M121.65,71.78c.33-2.51.65-5,1-7.53l6.19,1.35.13-.45-5.8-1.81.26-1.84,10.06,4.2c-.46,2.53-.87,4.75-1.28,7l-1.68,0Zm8.37-6V66h.75v-.19Z"/><path class="cls-8" d="M115.87,71.17l.09,0,2.21.53,0,0,3.46,1.08c-.15,1.8-.29,3.61-.43,5.42-2.85-1-5.8-1.79-8.52-3.06-2.92-1.36-3-2.46-1-5.32l2.42.88Z"/><path class="cls-9" d="M121.18,78.15c.14-1.81.28-3.62.43-5.42h8.9l1.68,0c-.07,4.46-.72,5-6.81,5.46C124,78.24,122.58,78.15,121.18,78.15Z"/><path class="cls-10" d="M123.15,63.34l5.8,1.81-.13.45-6.19-1.35h-7.4v-.51Z"/><path class="cls-10" d="M130.51,72.72h-8.9l-3.46-1.08,3.5.13Z"/><path class="cls-10" d="M118.17,71.67,116,71.14Z"/><path class="cls-10" d="M115.87,71.17l-1.77-.52Z"/><path class="cls-5" d="M134,60.58c0,.39.06.78.08,1.17l-.31,0c0-.39-.06-.78-.08-1.17Z"/><path class="cls-5" d="M134.52,58.54v.81h-.21v-.81Z"/><path class="cls-10" d="M130,65.82h.75V66H130Z"/></g></g></svg>