<svg xmlns="http://www.w3.org/2000/svg" viewBox="0 0 246.86 246.83"><defs><style>.cls-1{fill:#38387f;}.cls-2{fill:#9292a4;}.cls-3{fill:#e4bb96;}.cls-4{fill:#3c3631;}.cls-5{fill:#d2daf4;}.cls-6{fill:#b87b62;}.cls-7{fill:#becae7;}.cls-8{fill:#bcccf3;}.cls-9{fill:#99b8ee;}</style></defs><title>Ресурс 3</title><g id="Слой_2" data-name="Слой 2"><g id="Слой_1-2" data-name="Слой 1"><path class="cls-1" d="M179.82,233.2a104.38,104.38,0,0,1-32.76,11.33,145,145,0,0,1-23.21,2.29,117,117,0,0,1-48.23-9.66l-.59-.38,0,0c0-.83.15-1.66.11-2.48-.3-6.37-.86-12.74-.89-19.11q-.08-13.3.57-26.61c.13-2.89.47-5.58-1.62-7.92a17.16,17.16,0,0,0-.64-1.87q-7.2-15.06-14.44-30.11A4.67,4.67,0,0,1,58,143.6,481.13,481.13,0,0,1,90.75,92.05c5.84-8.15,14.12-11.76,24.15-11.28.51,2.68.69,5.47,1.57,8a14.12,14.12,0,0,0,22.39,6.46c4.7-3.68,6.22-8.81,6.32-14.53,3.72.76,7.54,1.23,11.16,2.33,20.56,6.23,40.13,14.94,59.45,24.24.65.31.87,1.5,1.3,2.27a9.9,9.9,0,0,0-.64,1.31q-4.62,13.86-9.21,27.72a39.1,39.1,0,0,0-1.9,4.86c-.56,2.22-1.65,2.46-3.61,1.71-5.79-2.21-11.62-4.29-17.24-6.35.57,6.53,1.24,13.27,1.72,20q1.32,18.84,2.43,37.71c.22,3.73.13,7.48.19,11.22a7.58,7.58,0,0,0-.15,2.7c.85,2.65-.53,4.6-2.06,6.26-2,2.19-4.42,4-6.6,6-1.26,1.18-2.39,2.5-3.58,3.75l.48.6,4.65-2,.18.22L176,231.69c.19.22.38.43.56.65l6.53-3.74.24.25-2.72,4a1.18,1.18,0,0,1-.42.24Z"/><path class="cls-2" d="M217.09,109.56c-.43-.77-.65-2-1.3-2.27-19.32-9.3-38.89-18-59.45-24.24-3.62-1.1-7.44-1.57-11.16-2.33l-2.1-9q-.74-5.1-1.49-10.2a18.62,18.62,0,0,0,.88-3.59c.13-2.6.11-5.22,0-7.82a12.25,12.25,0,0,0-.84-2.86,16,16,0,0,0,2.71-2.07,3.83,3.83,0,0,0-2.15-6.4A37.54,37.54,0,0,0,143.51,33c.2-2.59-1.24-4.53-3.8-4.7-2.74-.17-5.53.41-8.29.61a7.74,7.74,0,0,1-3,0c-2.73-.94-5.45-1.54-8.28-.6-2,.66-3.35,2-3.09,4.23.23,1.88.71,3.73,1.07,5.6l-.52.5c-2.78.29-3.55,1.24-3.56,3.9,0,2.83,2.25,3.72,4,5.07a8.06,8.06,0,0,0-.67,2.09c-.09,2.88.16,5.79-.14,8.65-.17,1.56.11,2.54,1.36,3.33q-1.87,9.56-3.74,19.11c-10-.48-18.31,3.13-24.15,11.28A481.13,481.13,0,0,0,58,143.6a4.67,4.67,0,0,0,.07,5.06l-3.79,6.63-1.44,2.52c-1.87-6.8-3.19-13.69-5.63-20.14C40.92,121,34.07,104.5,27.53,87.91a9.65,9.65,0,0,1-.73-5,22.36,22.36,0,0,0-1.32-12,41.51,41.51,0,0,1-1.37-4.75c-.72-3.17-1.35-6.36-2-9.54l-.31.08c-.34,3-.69,6-1.12,9.73l-3-6.32Q44.39,16.45,93.93,3.68A114.89,114.89,0,0,1,130.43.25c27.1,1.74,51.31,11.09,72.2,28.62a121.44,121.44,0,0,1,38.66,57.76,124.09,124.09,0,0,1,5.4,30.93,121,121,0,0,1-13.64,62.78,118.75,118.75,0,0,1-34.93,41.35c.89-3.43,1.11-7.22,2.77-10.21,5.28-9.5,11.32-18.58,16.64-28,6.39-11.38,12.06-23.16,15.29-35.88a54.58,54.58,0,0,0,2-15.41c-.28-6.76-4.83-11.63-9.69-15.95C222.53,113.88,219.77,111.77,217.09,109.56Z"/><path class="cls-2" d="M73.18,180.64c2.09,2.34,1.75,5,1.62,7.92q-.63,13.29-.57,26.61c0,6.37.59,12.74.89,19.11,0,.82-.07,1.65-.11,2.48-6.3-3.29-12.94-6.07-18.84-10-28.26-18.64-46-44.7-53.42-77.71A114.49,114.49,0,0,1,.18,117.71a123.44,123.44,0,0,1,15.93-55,2.76,2.76,0,0,1,.49-.54,39.82,39.82,0,0,1,.42,4.2c0,1.53.32,3.67-.52,4.5-3.9,3.82-3.26,7.8-1.28,12.12a16.78,16.78,0,0,1,1.87,5.34c.51,6,.54,11.94,1,17.88.88,10.49,1.79,21,3,31.42a156.58,156.58,0,0,0,8.34,36.29c2.46,6.68,5.45,13,11,17.89a15,15,0,0,0,9.69,3.93c5.84.24,10.53-2.26,14.59-6C67.76,186.94,70.38,183.69,73.18,180.64Z"/><path class="cls-3" d="M73.18,180.64c-2.8,3.05-5.42,6.3-8.46,9.09-4.06,3.74-8.75,6.24-14.59,6a15,15,0,0,1-9.69-3.93c-5.51-4.85-8.5-11.21-11-17.89a156.58,156.58,0,0,1-8.34-36.29c-1.22-10.45-2.13-20.93-3-31.42-.5-5.94-.53-11.93-1-17.88A16.78,16.78,0,0,0,15.22,83c-2-4.32-2.62-8.3,1.28-12.12.84-.83.51-3,.52-4.5a39.82,39.82,0,0,0-.42-4.2l1.1-2,3,6.32c.43-3.69.78-6.71,1.12-9.73l.31-.08c.67,3.18,1.3,6.37,2,9.54a41.51,41.51,0,0,0,1.37,4.75,22.36,22.36,0,0,1,1.32,12,9.65,9.65,0,0,0,.73,5C34.07,104.5,40.92,121,47.24,137.67c2.44,6.45,3.76,13.34,5.63,20.14l1.44-2.52,3.79-6.63q7.23,15,14.44,30.11A17.16,17.16,0,0,1,73.18,180.64Z"/><path class="cls-3" d="M217.09,109.56c2.68,2.21,5.44,4.32,8,6.63,4.86,4.32,9.41,9.19,9.69,15.95a54.58,54.58,0,0,1-2,15.41c-3.23,12.72-8.9,24.5-15.29,35.88-5.32,9.47-11.36,18.55-16.64,28-1.66,3-1.88,6.78-2.77,10.21l0,0-.5.43-17.07,10.75,2.71-4,.3-.71.65-.12-.07-.22-.53.38-.58.42-6.53,3.74c-.18-.22-.37-.43-.56-.65l5.78-6.37.48-.51-.66.29-4.65,2-.48-.6c1.19-1.25,2.32-2.57,3.58-3.75,2.18-2,4.59-3.85,6.6-6,1.53-1.66,2.91-3.61,2.06-6.26a7.58,7.58,0,0,1,.15-2.7c2.86-.25,4.13-1.86,4.32-4.67a27.47,27.47,0,0,1,1-4.87c3.81-15.27,7.55-30.57,11.56-45.79,1.13-4.29,3.09-8.35,4.7-12.62l-3.15-1.23q4.6-13.86,9.21-27.72A9.9,9.9,0,0,1,217.09,109.56Z"/><path class="cls-2" d="M197.65,222.09l.5-.43Z"/><path class="cls-3" d="M179.82,233.2l.34-.12-.14.13Z"/><path class="cls-2" d="M75,236.78l.59.38Z"/><path class="cls-2" d="M207.24,138.59l3.15,1.23c-1.61,4.27-3.57,8.33-4.7,12.62-4,15.22-7.75,30.52-11.56,45.79a27.47,27.47,0,0,0-1,4.87c-.19,2.81-1.46,4.42-4.32,4.67-.06-3.74,0-7.49-.19-11.22q-1.12-18.86-2.43-37.71c-.48-6.76-1.15-13.5-1.72-20,5.62,2.06,11.45,4.14,17.24,6.35,2,.75,3.05.51,3.61-1.71A39.1,39.1,0,0,1,207.24,138.59Z"/><path class="cls-3" d="M114.9,80.77q1.88-9.55,3.74-19.11l7.43,2.51a10.74,10.74,0,0,0,8.06,6.91c2.89.63,6,.43,9,.59l2.1,9c-.1,5.72-1.62,10.85-6.32,14.53a14.12,14.12,0,0,1-22.39-6.46C115.59,86.24,115.41,83.45,114.9,80.77Z"/><path class="cls-4" d="M118.16,38.12c-.36-1.87-.84-3.72-1.07-5.6-.26-2.26,1.06-3.57,3.09-4.23,2.83-.94,5.55-.34,8.28.6a7.74,7.74,0,0,0,3,0c2.76-.2,5.55-.78,8.29-.61,2.56.17,4,2.11,3.8,4.7a37.54,37.54,0,0,1-1.33,5.74c-.6,2.09-1.81.38-2.72.42-3.71.16-7.12-.52-8.93-3.15-2.74,1-5.1,1.84-7.4,2.8a26.81,26.81,0,0,0-3.28,1.91l-.68-.76Z"/><path class="cls-5" d="M118.16,38.12l1,1.83c.19,2.2.39,4.4.58,6.61,3.64-.66,7-1.8,10.43-1.75s6.86,1.3,10.27,2c.26-1.77.5-3.46.75-5.15l.42,0V47.2a12.25,12.25,0,0,1,.84,2.86c.12,2.6.14,5.22,0,7.82a18.62,18.62,0,0,1-.88,3.59,30.82,30.82,0,0,1-15.52,2.7l-7.43-2.51c-1.25-.79-1.53-1.77-1.36-3.33.3-2.86,0-5.77.14-8.65a8.06,8.06,0,0,1,.67-2.09c.34-.51,1-1.06,1-1.51-.37-2.5-.92-5-1.41-7.46Zm12,24.55c2.67-.48,5.4-.76,8-1.5,3.42-1,3.73-1.91,2.51-5.52.16-1.81.44-3.62.42-5.42a2.38,2.38,0,0,0-1.19-1.83c-2.59-.85-5.24-1.51-7.89-2.16-1.17-.29-2,.06-1.82,1.51L123,48.87l.08.43,7-.57q0,3.92,0,7.83l-8.46-.38c-1-.76-2-1-2.46.48-.34,1.28-1.58,3.13.65,3.76C123.2,61.38,126.68,61.94,130.12,62.67Z"/><path class="cls-3" d="M141.62,47.2V41.72l-.42,0c-.25,1.69-.49,3.38-.75,5.15-3.41-.71-6.83-2-10.27-2s-6.79,1.09-10.43,1.75c-.19-2.21-.39-4.41-.58-6.61l.68.76a26.81,26.81,0,0,1,3.28-1.91c2.3-1,4.66-1.78,7.4-2.8,1.81,2.63,5.22,3.31,8.93,3.15.91,0,2.12,1.67,2.72-.42a3.83,3.83,0,0,1,2.15,6.4A16,16,0,0,1,141.62,47.2Z"/><path class="cls-6" d="M126.07,64.17a30.82,30.82,0,0,0,15.52-2.7q.75,5.1,1.49,10.2c-3-.16-6.06,0-9-.59A10.74,10.74,0,0,1,126.07,64.17Z"/><path class="cls-3" d="M117.64,38.62c.49,2.48,1,5,1.41,7.46.07.45-.62,1-1,1.51-1.76-1.35-4-2.24-4-5.07C114.09,39.86,114.86,38.91,117.64,38.62Z"/><path class="cls-1" d="M181.57,225.1l.66-.29-.48.51Z"/><path class="cls-1" d="M183.64,228.18l.53-.38.07.22-.65.12Z"/><path class="cls-1" d="M183.06,228.6l.58-.42,0,0-.3.71Z"/><path class="cls-7" d="M130.09,56.56q0-3.91,0-7.83l8.47.91.06-.45-8.48-1.44c-.17-1.45.65-1.8,1.82-1.51,2.65.65,5.3,1.31,7.89,2.16a2.38,2.38,0,0,1,1.19,1.83c0,1.8-.26,3.61-.42,5.42l-1.58.6Z"/><path class="cls-8" d="M130.12,62.67c-3.44-.73-6.92-1.29-10.3-2.25-2.23-.63-1-2.48-.65-3.76.41-1.5,1.46-1.24,2.46-.48,0,.08-.07.17,0,.24a.24.24,0,0,0,.16.15l8.4,1C130.13,59.28,130.12,61,130.12,62.67Z"/><path class="cls-9" d="M130.12,62.67c0-1.7,0-3.39,0-5.09l8.91-1.33,1.58-.6c1.22,3.61.91,4.55-2.51,5.52C135.52,61.91,132.79,62.19,130.12,62.67Z"/><path class="cls-2" d="M130.15,47.75l8.48,1.44-.06.45-8.47-.91-7,.57-.08-.43Z"/><path class="cls-2" d="M139.05,56.25l-8.91,1.33-8.4-1a.24.24,0,0,1-.16-.15c0-.07,0-.16,0-.24l8.46.38Z"/></g></g></svg>