<svg xmlns="http://www.w3.org/2000/svg" viewBox="0 0 246.25 246.47"><defs><style>.cls-1{fill:#15246d;}.cls-2{fill:#b5b5cd;}.cls-3{fill:#9292a4;}.cls-4{fill:#e9a996;}.cls-5{fill:#fdfdfd;}.cls-6{fill:#d2daf4;}.cls-7{fill:#becae7;}.cls-8{fill:#bcccf3;}.cls-9{fill:#99b8ee;}</style></defs><title>Ресурс 5</title><g id="Слой_2" data-name="Слой 2"><g id="Слой_1-2" data-name="Слой 1"><path class="cls-1" d="M50.3,222.36c-5.92-5.2-12.31-10-17.67-15.69-17.68-18.9-28.45-41.36-31.56-67-5-41.28,7.44-76.83,37.32-105.81A116.71,116.71,0,0,1,109.45.75c38.37-3.9,71.86,7.46,99.73,34.27,20,19.28,32.43,42.92,35.88,70.47,5.92,47.34-10.22,86.11-47.5,116a10.15,10.15,0,0,1-1.73.91c-.13-4.49-.2-9-.4-13.45a516.6,516.6,0,0,0-7.11-66.46c-2.77-15.57-6.39-30.92-12.42-45.62-3.64-8.85-9.65-15.43-18.62-18.72-6-2.19-12.27-3.44-18.43-5.11l-2.61-13.9c7-8.33,8.3-17.92,5.78-28.14a43.63,43.63,0,0,0-4.08-10.37c-3.43-6.26-8.75-9.12-16.16-9.21s-13.13,2.34-17,8.7A37,37,0,0,0,99.5,43.29a25.66,25.66,0,0,0,7.79,16.8q-1.55,6.3-3.1,12.6c-3.52.56-7.12.83-10.56,1.72C83,77.14,76.36,84.38,72.4,94.21a250.59,250.59,0,0,0-14.49,53.55C55.52,162.44,53.61,177.21,52,192,51,202.07,50.84,212.24,50.3,222.36Z"/><path class="cls-2" d="M50.3,222.36C50.84,212.24,51,202.07,52,192c1.58-14.79,3.49-29.56,5.88-44.24A250.59,250.59,0,0,1,72.4,94.21c4-9.83,10.62-17.07,21.23-19.8,3.44-.89,7-1.16,10.56-1.71,1.15,6.16,3.68,11.56,9.79,14,9,3.68,23.3-.2,24.87-13.73,6.16,1.67,12.47,2.92,18.43,5.11,9,3.29,15,9.87,18.62,18.72,6,14.7,9.65,30.05,12.42,45.62a516.6,516.6,0,0,1,7.11,66.46c.2,4.48.27,9,.4,13.45q-3.22,2.33-6.43,4.67a5.09,5.09,0,0,1-.54-1.56c.11-17.12-.08-34.23-1.51-51.31-.41-4.79-.54-9.61-1.11-14.37-1-8.54-2.23-17.06-3.44-25.57-.45-3.18-1.12-6.33-1.7-9.5-.54.29-.73.52-.7.72.44,3.61,1,7.21,1.37,10.82,1.06,10.29,2.11,20.59,3,30.89.76,8.58,1.48,17.16,2,25.76.52,8.95.68,17.92,1.11,26.87.12,2.6.65,5.18,1,7.76a111.12,111.12,0,0,1-30.38,13.93,116.94,116.94,0,0,1-25,4.62,139.48,139.48,0,0,1-25.52-.5A117.72,117.72,0,0,1,65.6,232.36c-5-2.68-9.76-6-14.6-9C50.68,223.14,50.53,222.69,50.3,222.36Z"/><path class="cls-3" d="M188.88,227.56c-.34-2.58-.87-5.16-1-7.76-.43-9-.59-17.92-1.11-26.87-.49-8.6-1.21-17.18-2-25.76-.93-10.3-2-20.6-3-30.89-.37-3.61-.93-7.21-1.37-10.82,0-.2.16-.43.7-.72.58,3.17,1.25,6.32,1.7,9.5,1.21,8.51,2.42,17,3.44,25.57.57,4.76.7,9.58,1.11,14.37,1.43,17.08,1.62,34.19,1.51,51.31a5.09,5.09,0,0,0,.54,1.56Z"/><path class="cls-4" d="M138.85,73C137.28,86.55,123,90.43,114,86.75c-6.11-2.49-8.64-7.89-9.79-14q1.56-6.32,3.1-12.61l1.11-9.51a6.54,6.54,0,0,1,1.17.33c4.25,2.08,8.76,3.34,13.42,2.52,4-.7,7.89-2.22,11.82-3.38.48,3,.95,6.05,1.43,9.07Z"/><path class="cls-5" d="M136.24,59.12c-.48-3-1-6-1.43-9.07,0-1.35,0-2.71,0-4.07.15-2,.22-4.11.48-6.15a12.28,12.28,0,0,0-1.94-8.35c-.13-.33-.25-.66-.37-1-1.6-1.62-2.94-3.71-4.85-4.74-3.62-2-7.56-3.29-10.9-4.69l-7.45,11c-.78,1.19-2.14,2.35-2.23,3.6-.3,4.35-.21,8.74-.15,13.12,0,.61.66,1.22,1,1.84l-1.11,9.5a25.66,25.66,0,0,1-7.79-16.8,37,37,0,0,1,5.28-23.19c3.87-6.36,9.51-8.79,17-8.7s12.73,2.95,16.16,9.21A43.63,43.63,0,0,1,142,31C144.54,41.2,143.28,50.79,136.24,59.12Z"/><path class="cls-6" d="M133,30.5c.12.32.24.65.37,1,.19,1.42.34,2.84.58,4.26a28.1,28.1,0,0,1,.62,2.8c.16,2.48.19,5,.26,7.44,0,1.36,0,2.72,0,4.07-3.93,1.16-7.8,2.68-11.82,3.38-4.66.82-9.17-.44-13.42-2.52a6.54,6.54,0,0,0-1.17-.33c-.35-.61-1-1.22-1-1.83-.06-4.38-.15-8.77.15-13.12.09-1.25,1.45-2.41,2.23-3.6.06.95.13,1.9.23,3.42,7.68-3.93,15.16-3.29,22.74-.1C132.83,33.3,132.9,31.9,133,30.5ZM112.83,45l-3.32-.68c-.21,1.68-.37,3-.56,4.46A22.8,22.8,0,0,0,121.33,52a90.77,90.77,0,0,0,9.16-1.92c3.23-1,3.52-2.09,2.35-5.6.13-1.8.17-3.62.43-5.41.2-1.42-.23-2.2-1.61-2.56-2.79-.74-5.59-1.46-8.35-2.3-1.74-.54-2.06.3-2,1.72L113.45,37l.07.47,7.82-.49q0,4.2,0,8.4Z"/><path class="cls-4" d="M133,30.5c-.07,1.4-.14,2.8-.23,4.85-7.58-3.19-15.06-3.83-22.74.1-.1-1.52-.17-2.47-.23-3.42l7.45-11c3.34,1.4,7.28,2.74,10.9,4.69C130,26.79,131.37,28.88,133,30.5Z"/><path class="cls-2" d="M134.8,46c-.07-2.48-.1-5-.26-7.44a28.1,28.1,0,0,0-.62-2.8c-.24-1.42-.39-2.84-.58-4.26a12.28,12.28,0,0,1,1.94,8.35C135,41.87,135,43.93,134.8,46Z"/><path class="cls-7" d="M121.3,45.41q0-4.2,0-8.4l8.12.65.06-.52L121.31,36c-.06-1.42.26-2.26,2-1.72,2.76.84,5.56,1.56,8.35,2.3,1.38.36,1.81,1.14,1.61,2.56-.26,1.79-.3,3.61-.43,5.41l-2.52.51Z"/><path class="cls-8" d="M121.33,52A22.8,22.8,0,0,1,109,48.76c.19-1.48.35-2.78.56-4.46l3.32.68,8.45,1.14C121.29,48.09,121.31,50.06,121.33,52Z"/><path class="cls-9" d="M121.33,52c0-2,0-3.94,0-5.92l9-1.09,2.52-.51c1.17,3.51.88,4.59-2.35,5.6A90.77,90.77,0,0,1,121.33,52Z"/><path class="cls-3" d="M121.31,36l8.21,1.18-.06.52L121.34,37l-7.82.49-.07-.47Z"/><path class="cls-3" d="M130.32,45l-9,1.09L112.83,45l8.47.43Z"/></g></g></svg>