<svg xmlns="http://www.w3.org/2000/svg" viewBox="0 0 268.98 644.26"><defs><style>.cls-1{fill:#b7dff9;}.cls-2{fill:#dbadd8;}.cls-3{fill:#fccdf7;}.cls-4{fill:#ffe9fd;}.cls-5{fill:#e1f2ff;}</style></defs><title>botle</title><g id="Слой_2" data-name="Слой 2"><g id="Слой_1-2" data-name="Слой 1"><path class="cls-1" d="M99.94,68c.57,7.15.29,18.41-6.15,28.74-5.49,8.81-13,13-18.67,16.3-22.68,13.25-42,27.92-47.33,32.63C6.15,164.64,7.54,199.13,8.07,221.94c1.86,79.53-9.53,159-7.91,238.52.73,36.36,1.43,91.46.55,159.83l10,8.7q10.41,2.65,21.24,4.92c75.16,15.65,145.63,11.85,206.66-.09a47.43,47.43,0,0,0,8.71-7.52A46.38,46.38,0,0,0,256,612.54a45,45,0,0,0,3.06-18.12C257.2,512.17,266,430,268.23,347.78c1.14-41.19-3.24-82.56.19-123.62a132.23,132.23,0,0,0-3.27-43.69c-2.1-8.43-4-16.19-9.45-24.94C243,135,221.17,125.39,217.5,123.82c-10.33-4.42-19.23-5.75-27.52-14.89a39.18,39.18,0,0,1-6.9-10.59,40.41,40.41,0,0,1-2.58-23.09c-11.08-1.94-23-3.62-35.6-4.87C128.85,68.79,113.79,68.11,99.94,68Z"/><path class="cls-2" d="M191.49,64.39a133.23,133.23,0,0,0-22.08-7.83c-33.5-8.64-62.95-2.22-79.91,3.19a25.85,25.85,0,0,0,1.28,8.32,25.16,25.16,0,0,0,2.52,5.4A222.81,222.81,0,0,1,187,79.81,43.08,43.08,0,0,0,189.45,74,42.41,42.41,0,0,0,191.49,64.39Z"/><path class="cls-3" d="M196.91,67.29a168,168,0,0,0-21.66-7c-36.08-9-68.16-4.36-89.49,1.14A108.33,108.33,0,0,1,83.22,47.7,110.29,110.29,0,0,1,85.58,9,124.34,124.34,0,0,1,126.76.1c34-1.39,59.58,11.76,70.82,18.49a97,97,0,0,1,2.2,34.12A94.81,94.81,0,0,1,196.91,67.29Z"/><path class="cls-4" d="M127.82,7.38A147.22,147.22,0,0,0,106.6,8.7c-3.86.53-7.5,1.18-10.92,1.92-.39,4.82-.7,9.82-.88,15-.34,9.35-.27,18.21.09,26.54a82.8,82.8,0,0,1,35.57-4.81Z"/><path class="cls-5" d="M110,98.39A59.29,59.29,0,0,1,101,120.06c-11.16,16.23-23.65,15.71-39.86,29.28-20.44,17.11-27.07,40.13-29,46.71-6.19,21.48-2.68,39.81-1.5,46.62,5.46,31.66-2.27,30.33-6.76,211.47-.88,35.62-1.87,87.58-2,151.51A87.49,87.49,0,0,0,56,608.86a1030.2,1030.2,0,0,0,7.78-156.53c-1.94-69.89,3.13-139.95-.73-209.77-1-18.48-3.69-60.1,20.54-80,8-6.6,15.95-8.28,24.91-18.4C122,129,124.78,109.44,125,95a14.45,14.45,0,0,0-15,3.38Z"/><path class="cls-5" d="M125.26,78.57c-2-2.16-6.1-1.33-9.68-.6a25,25,0,0,0-5,1.58c-.3,2.5-.61,5-.91,7.5a48.35,48.35,0,0,1,7.8-.65,48.92,48.92,0,0,1,7.81.59C126.73,83.77,126.93,80.36,125.26,78.57Z"/><path class="cls-5" d="M228.23,155.62a72.5,72.5,0,0,1,24.53,54.24c2,84.86-.22,114.87-.22,114.87-2.82,38.91-5.06,77.86-7.71,116.78-1.8,26.33-3.23,47.86-4.16,61.82l-10,0c1.65-37.87,2.73-69.33,3.43-91.79,3.61-116.56,2-155.27,1.28-169.82C233.6,204.84,230.51,174.85,228.23,155.62Z"/><path class="cls-5" d="M235.76,588.26a110.35,110.35,0,0,1-18.27,10.88,115.58,115.58,0,0,1-29.94,9.26c-18.65,3.39-55.29,8.14-103.18,12a305.7,305.7,0,0,0,151.49-3Q235.82,602.82,235.76,588.26Z"/></g></g></svg>