<svg xmlns="http://www.w3.org/2000/svg" viewBox="0 0 401.97 573.26"><defs><style>.cls-1{fill:#a1cde5;}.cls-2{fill:#b7dff9;}.cls-3{fill:#e1f2ff;}</style></defs><title>packet</title><g id="Слой_2" data-name="Слой 2"><g id="Слой_1-2" data-name="Слой 1"><path class="cls-1" d="M68.42,23.16C52.89,54.65,48.55,80.48,47.54,98.54c-.86,15.4.67,25.69-1.79,48.89C43.47,169,40,181,36.72,196.06c-4.63,21.73-6.08,47-9,97.57-1.61,27.91-3,52.1-3.11,85.11-.09,27.41.77,43.66-2.58,70.61-2.32,18.74-4.16,22.34-7,41.45A450.37,450.37,0,0,0,10.56,565a341,341,0,0,1,64-15.79c14-2,38.76-5.51,69-2.92,35,3,36,10.56,80.88,19.27,19.6,3.8,51.83,9.83,92.22,7a299.25,299.25,0,0,0,65.71-12.11c2-15.75,4.89-40.3,8-70.41,9.47-91.45,14.12-138,10.1-177.32-3.34-32.8-8.12-43.71-11.24-89.25-2.61-38.14.27-37.43-3-67.2-4.38-40.09-11-54.6-11.24-89.25a276.91,276.91,0,0,1,3.46-45.2,86.66,86.66,0,0,0-68.67-6.13,387,387,0,0,0-1.46,39.83c.6,39.69,7,56.59,7.63,89.12A274.29,274.29,0,0,1,310.14,206a244.92,244.92,0,0,0-25.22-4.54c-11.06-1.41-25.35-3.23-41.65-1.53-20.75,2.17-18.56,7.31-38.42,9.48-11.45,1.25-15-.15-45.26-1.65-12.25-.61-22.3-.91-29-1.06a138.11,138.11,0,0,1-5.26-54.59c2.46-22.36,9.59-33.4,14.59-52,4.82-18,8.16-44.89-.65-81.62a120.77,120.77,0,0,1-23.8,6.39A122.56,122.56,0,0,1,68.42,23.16Z"/><path class="cls-2" d="M58,11.9C42.42,43.39,38.08,69.22,37.07,87.28c-.86,15.4.68,25.69-1.78,48.89-2.28,21.52-5.81,33.52-9,48.63-4.63,21.73-6.09,47-9,97.57-1.6,27.91-3,52.1-3.1,85.11-.09,27.41.76,43.66-2.58,70.61-2.33,18.74-4.17,22.34-7,41.45A451.49,451.49,0,0,0,.09,553.71a341,341,0,0,1,64-15.79c14-2,38.75-5.51,69-2.92,35,3,36,10.56,80.89,19.27,19.59,3.8,51.83,9.83,92.21,7a299.25,299.25,0,0,0,65.71-12.11c2-15.76,4.9-40.3,8-70.42,9.47-91.44,14.12-138,10.11-177.31-3.35-32.8-8.13-43.71-11.25-89.25-2.61-38.14.27-37.43-3-67.2-4.38-40.09-11.05-54.61-11.25-89.25a275.55,275.55,0,0,1,3.47-45.2A87.76,87.76,0,0,0,328.54,0,86.62,86.62,0,0,0,299.37,4.4a387.6,387.6,0,0,0-1.45,39.83c.59,39.69,7,56.59,7.62,89.12a273.69,273.69,0,0,1-5.87,61.43,244.92,244.92,0,0,0-25.22-4.54c-11.06-1.41-25.35-3.23-41.64-1.53-20.75,2.17-18.57,7.31-38.42,9.48-11.46,1.25-15-.16-45.27-1.65-12.25-.61-22.3-.91-29-1.06a138.32,138.32,0,0,1-5.26-54.59c2.46-22.37,9.59-33.4,14.59-52,4.82-18,8.16-44.89-.64-81.62A120.69,120.69,0,0,1,105,13.62,122.7,122.7,0,0,1,58,11.9Z"/><path class="cls-3" d="M51.31,392.4c-.46,12.48,24.16,52.43,37.63,61.82a465.44,465.44,0,0,1,63.33,53.07,97.36,97.36,0,0,0-9-52.3c-11-22.62-28-34.19-38.39-41.29A133.83,133.83,0,0,0,51.31,392.4Z"/><path class="cls-3" d="M164.5,400.16c4.42-8.42,10.87-14.58,22.57-22.14,21-13.6,32.51-14.56,48-22.42,11.41-5.81,26.5-16.15,41.2-36a327.94,327.94,0,0,1-53.73,15c-24.11,4.52-34.79,3.62-51.14,10.22-19.17,7.74-32.11,20.11-39.73,28.77a50.19,50.19,0,0,0,27.16,50.55A51.64,51.64,0,0,1,164.5,400.16Z"/><path class="cls-3" d="M196.36,288.92c14.72-9.36,24.72-10.24,39.29-16.7,16.72-7.4,39.36-22.09,61.22-54.57,2,4.81,7.43,19.42,2.3,36.34-4.2,13.88-13.26,21.95-17.87,25.94C265,294.09,246.45,297,237.1,298.86,217.7,302.77,190,312,156,335.79,162.81,321.83,174.93,302.54,196.36,288.92Z"/><path class="cls-3" d="M104.87,369.88c-.07-7,1.93-12.41,9.18-27.76,12.11-25.65,12.88-24,13.73-28.51,2.05-10.94-3.09-17.4-20-47-23.15-40.37-26.25-50.45-27.83-57.22a106.28,106.28,0,0,1-1.23-40.84c-13.17,18-17.3,33.9-18.82,43.73-2.55,16.57.07,30.56,4.39,53.65,5,26.75,8.87,30.32,8.37,43.82-.7,18.91-9.1,34-16.11,43.83a68,68,0,0,0,11.21,15.82c15.67,16.48,35.45,20.41,43.63,21.54A41.15,41.15,0,0,1,104.87,369.88Z"/><path class="cls-1" d="M207.81,505.09c-2.08-4.54,5.63-13.71,21.11-31.86,13.66-16,21-22.57,34-36.84,15.88-17.46,23.82-26.2,30.36-37,6.85-11.28,10.41-21.31,18.41-57.35,12.74-57.33,9.27-56.79,17.73-88.19,8.24-30.59,13.31-37.7,16.8-62.85A243.07,243.07,0,0,0,348,142.15c6.68,35.09,10.65,64.92,13.12,87.51,2.31,21.18,4.31,39.89,4.86,65.45a540.23,540.23,0,0,1-2.58,70.62c-3.64,34.69-8,41-11.63,70.28a389,389,0,0,0-1.23,83.36A147.82,147.82,0,0,0,314.64,509c-12.18-1.88-21.1-1.65-34.4-1.25C218.82,509.6,210.05,510,207.81,505.09Z"/><path class="cls-1" d="M105.79,187.7c-10.08-26-9.92-45.92-8.13-58.92,3-22,12-32.64,18.64-63.38a232.49,232.49,0,0,0,5.14-41.52A132.33,132.33,0,0,1,125.21,53a137.15,137.15,0,0,1-7.09,45.07C112.55,116.05,106.66,144.05,105.79,187.7Z"/><path class="cls-1" d="M367.38,173.68a362.49,362.49,0,0,0-8.85-55.32c-5.91-24.4-11.16-34.7-11.36-53a106.36,106.36,0,0,1,10.12-45.56,150,150,0,0,0-1.81,49.49c3.69,27.32,13.53,39.58,15.06,67.63A133.16,133.16,0,0,1,367.38,173.68Z"/><path class="cls-1" d="M21.92,514.62a282.37,282.37,0,0,0,8.23-43.21A283.81,283.81,0,0,0,30.93,417a191.2,191.2,0,0,0,72.76,92.71,248.9,248.9,0,0,0-81.77,4.87Z"/><path class="cls-3" d="M56.54,146c10.34-16.63,19-29.95,25-39,14.39-21.75,20.63-30,24.58-44.43a91.89,91.89,0,0,0,2.94-30.72c-5.77,3.86-14.06,9.65-23.6,17.27-2.88,2.3-17.87,14.27-23.73,20.89C43.68,90.46,51.75,128.6,56.54,146Z"/><path class="cls-3" d="M195.44,264.71c6.21-2.39,5.66-4.62,12.34-6.8,8.68-2.85,14.19-.58,15.84-3.66,1.53-2.83-1.66-7.52-3.87-9.81C213,237.49,202,239.15,200,239.49c-6.81,1.16-8.91,4.16-15.38,7.3-5.58,2.7-14.17,5.38-26.75,4.46a30.34,30.34,0,0,0,14,13.2C182.6,269.22,192.87,265.7,195.44,264.71Z"/><path class="cls-3" d="M329.7,146.32a73.78,73.78,0,0,0,10.14-29.24c2.08-18.07-4.13-27.81-6-51a155.85,155.85,0,0,1,1.3-35.61c-6.09,3.45-14.62,9.61-18.85,19.86-5.06,12.23-1.12,23.33,3.33,41.22A465.84,465.84,0,0,1,329.7,146.32Z"/></g></g></svg>